<?xml version="1.0" standalone="no"?>
<!DOCTYPE svg PUBLIC "-//W3C//DTD SVG 20010904//EN"
 "http://www.w3.org/TR/2001/REC-SVG-20010904/DTD/svg10.dtd">
<svg version="1.0" xmlns="http://www.w3.org/2000/svg"
 width="512.000000pt" height="512.000000pt" viewBox="0 0 512.000000 512.000000"
 preserveAspectRatio="xMidYMid meet">

<g transform="translate(0.000000,512.000000) scale(0.100000,-0.100000)"
fill="#000000" stroke="none">
<path d="M3774 5106 c-276 -63 -487 -274 -545 -544 l-10 -51 -63 -21 c-174
-58 -306 -211 -336 -389 -6 -39 -10 -122 -8 -186 3 -110 4 -116 31 -142 l27
-28 427 -3 c449 -3 468 -1 498 42 22 30 21 293 -1 367 -47 159 -160 279 -314
336 -62 24 -63 27 -28 120 58 157 218 281 394 306 256 37 506 -137 559 -390
12 -57 15 -241 15 -1090 l0 -1023 -2097 -2 -2098 -3 -49 -24 c-63 -31 -122
-90 -149 -150 -30 -64 -30 -178 0 -242 28 -62 83 -121 133 -144 l40 -18 0
-356 c1 -388 7 -455 55 -576 72 -181 203 -323 377 -411 l67 -34 3 -196 3 -196
33 -29 32 -29 278 0 c199 0 284 4 302 13 18 9 51 63 120 199 l95 188 995 0
995 0 95 -188 c69 -136 102 -190 120 -199 18 -9 103 -13 302 -13 l278 0 32 29
33 29 3 196 3 196 67 34 c174 88 305 230 377 411 48 121 54 188 55 576 l0 356
40 18 c50 23 105 82 133 144 30 64 30 178 0 242 -27 60 -92 125 -152 152 -37
17 -71 22 -183 25 l-138 4 0 1022 c0 665 -4 1044 -11 1086 -25 156 -85 275
-199 391 -130 131 -282 198 -470 205 -68 2 -127 -1 -166 -10z m-327 -822 c64
-31 126 -99 147 -161 9 -26 16 -77 16 -115 l0 -68 -301 0 -302 0 6 78 c6 90
29 146 86 205 91 96 228 120 348 61z m1439 -2108 c22 -22 34 -44 34 -60 0 -35
-25 -83 -49 -96 -27 -14 -4595 -14 -4622 0 -24 13 -49 61 -49 96 0 16 12 38
34 60 l34 34 2292 0 2292 0 34 -34z m-168 -738 c-4 -352 -5 -377 -26 -439 -57
-172 -200 -313 -374 -370 l-73 -24 -1685 0 -1685 0 -70 22 c-171 54 -320 201
-377 372 -21 62 -22 87 -26 439 l-3 372 2161 0 2161 0 -3 -372z m-3378 -1043
c0 -3 -21 -48 -47 -100 l-48 -95 -172 0 -173 0 0 100 0 100 220 0 c121 0 220
-2 220 -5z m2880 -95 l0 -100 -173 0 -172 0 -48 95 c-26 52 -47 97 -47 100 0
3 99 5 220 5 l220 0 0 -100z"/>
<path d="M2880 3573 c-105 -41 -79 -192 33 -193 52 0 97 43 97 94 0 62 -76
120 -130 99z"/>
<path d="M3264 3561 c-45 -27 -61 -79 -39 -124 30 -63 107 -77 156 -28 51 51
33 137 -33 160 -42 15 -48 14 -84 -8z"/>
<path d="M3673 3565 c-39 -17 -53 -42 -53 -93 0 -51 43 -92 97 -92 49 0 93 45
93 95 0 49 -15 74 -55 91 -41 17 -42 17 -82 -1z"/>
<path d="M3279 3166 c-48 -15 -75 -72 -59 -121 15 -44 44 -65 93 -65 83 0 126
94 72 158 -29 35 -60 43 -106 28z"/>
<path d="M3683 3168 c-42 -11 -63 -42 -63 -94 0 -87 99 -128 162 -67 38 36 39
99 3 136 -30 29 -58 36 -102 25z"/>
<path d="M2845 3146 c-32 -32 -40 -69 -25 -107 28 -66 109 -81 161 -30 38 39
39 87 3 130 -22 26 -33 31 -70 31 -34 0 -51 -6 -69 -24z"/>
<path d="M2845 2746 c-67 -67 -22 -172 72 -169 50 1 93 48 93 99 0 81 -108
127 -165 70z"/>
<path d="M3253 2752 c-33 -26 -46 -68 -32 -109 14 -42 47 -65 96 -65 50 0 93
46 93 98 0 75 -98 123 -157 76z"/>
<path d="M3646 2744 c-31 -31 -36 -95 -11 -132 17 -24 67 -41 102 -34 70 13
98 110 46 164 -37 39 -99 39 -137 2z"/>
</g>
</svg>
