<?xml version="1.0" standalone="no"?>
<!DOCTYPE svg PUBLIC "-//W3C//DTD SVG 20010904//EN"
 "http://www.w3.org/TR/2001/REC-SVG-20010904/DTD/svg10.dtd">
<svg version="1.0" xmlns="http://www.w3.org/2000/svg"
 width="512.000000pt" height="512.000000pt" viewBox="0 0 512.000000 512.000000"
 preserveAspectRatio="xMidYMid meet">

<g transform="translate(0.000000,512.000000) scale(0.100000,-0.100000)"
fill="#000000" stroke="none">
<path d="M1108 4470 c-113 -19 -224 -76 -303 -155 -55 -55 -112 -149 -137
-224 -21 -63 -22 -85 -26 -493 l-3 -428 405 0 406 0 0 96 c0 171 48 292 160
404 73 73 154 120 246 144 91 23 1319 24 1409 1 89 -24 173 -73 245 -145 112
-112 160 -233 160 -404 l0 -96 406 0 405 0 -3 428 c-4 408 -5 430 -26 493 -57
172 -193 306 -372 366 -52 17 -125 18 -1490 19 -789 1 -1456 -2 -1482 -6z"/>
<path d="M1895 3511 c-99 -45 -144 -124 -145 -253 l0 -88 810 0 810 0 0 88 c0
100 -17 148 -71 201 -73 74 -42 71 -739 71 -584 0 -628 -2 -665 -19z"/>
<path d="M460 2863 c-195 -33 -360 -174 -432 -369 -20 -54 -22 -82 -26 -321
l-4 -263 2561 0 2561 0 0 233 c0 200 -3 245 -20 311 -25 97 -59 160 -126 235
-63 69 -129 114 -222 150 l-67 26 -2100 1 c-1155 1 -2111 0 -2125 -3z"/>
<path d="M2 1176 c3 -421 4 -435 24 -462 37 -50 72 -69 124 -69 52 0 87 19
124 69 18 23 22 45 24 137 l4 109 2258 0 2258 0 4 -109 c2 -92 6 -114 24 -137
37 -50 72 -69 124 -69 52 0 87 19 124 69 20 27 21 41 24 462 l3 434 -2561 0
-2561 0 3 -434z"/>
</g>
</svg>
