<?xml version="1.0" standalone="no"?>
<!DOCTYPE svg PUBLIC "-//W3C//DTD SVG 20010904//EN"
 "http://www.w3.org/TR/2001/REC-SVG-20010904/DTD/svg10.dtd">
<svg version="1.0" xmlns="http://www.w3.org/2000/svg"
 width="512.000000pt" height="512.000000pt" viewBox="0 0 512.000000 512.000000"
 preserveAspectRatio="xMidYMid meet">

<g transform="translate(0.000000,512.000000) scale(0.100000,-0.100000)"
fill="#000000" stroke="none">
<path d="M3643 4910 c-23 -9 -23 -11 -23 -214 l0 -205 43 19 c149 65 417 65
565 0 24 -11 46 -20 48 -20 2 0 4 90 4 199 0 195 -1 200 -22 215 -19 14 -65
16 -308 15 -157 0 -295 -4 -307 -9z"/>
<path d="M819 4776 c-146 -56 -230 -150 -259 -290 -34 -164 57 -340 213 -412
54 -26 74 -29 157 -29 82 0 103 4 152 27 195 91 274 319 179 512 -37 76 -101
138 -179 174 -69 31 -204 41 -263 18z"/>
<path d="M3804 4416 c-33 -8 -93 -31 -134 -51 l-73 -37 6 -55 c13 -125 109
-250 225 -293 77 -29 195 -25 267 10 111 53 195 178 195 289 0 45 -3 51 -33
69 -90 53 -169 75 -282 78 -70 2 -132 -1 -171 -10z"/>
<path d="M373 3910 c-29 -4 -80 -21 -115 -38 -114 -54 -181 -128 -225 -249
l-24 -68 -6 -710 c-7 -764 -7 -755 45 -817 77 -91 228 -74 290 32 l27 45 3
695 c3 473 7 699 15 708 5 7 20 12 31 10 l21 -3 5 -1570 5 -1570 24 -48 c62
-126 225 -160 331 -69 85 72 80 1 80 1015 l0 897 50 0 50 0 2 -914 3 -914 31
-44 c100 -137 305 -117 375 37 18 38 19 109 19 1613 0 867 4 1572 9 1572 4 0
77 -120 161 -267 85 -148 166 -287 182 -310 31 -46 96 -83 148 -83 72 0 704
122 745 144 124 67 124 243 0 313 -56 32 -91 29 -385 -26 -188 -36 -258 -45
-266 -37 -6 6 -76 126 -155 266 -79 140 -159 272 -177 292 -19 21 -64 52 -100
70 l-67 33 -540 1 c-297 1 -563 -2 -592 -6z"/>
<path d="M3443 3840 c-164 -24 -302 -157 -333 -319 -5 -29 -10 -190 -10 -357
l0 -304 165 0 165 0 1 218 c1 119 4 258 8 307 6 88 7 90 31 90 l25 0 3 -307 2
-308 445 0 445 0 2 308 3 307 24 3 c13 2 28 -2 32 -10 5 -7 9 -147 9 -311 l0
-297 168 2 167 3 -3 325 c-3 356 -7 384 -63 472 -85 132 -236 196 -439 186
l-65 -3 -94 -247 c-52 -136 -96 -246 -98 -244 -2 1 6 47 17 102 l21 99 -39 75
-40 76 31 55 c45 80 38 89 -71 89 -117 0 -125 -8 -81 -85 l32 -57 -39 -79 -38
-79 21 -108 c11 -59 20 -108 18 -110 -1 -1 -42 102 -90 230 -121 320 -99 288
-198 287 -45 -1 -105 -5 -134 -9z m541 -733 c23 -16 24 -63 3 -84 -18 -19 -61
-20 -82 -3 -20 16 -19 64 1 84 19 19 54 21 78 3z"/>
<path d="M2613 3758 c-16 -18 -83 -204 -83 -231 0 -2 30 -7 68 -10 87 -6 150
-35 216 -97 l53 -50 38 124 c42 139 45 168 20 196 -19 21 -225 90 -267 90 -14
0 -34 -10 -45 -22z"/>
<path d="M1590 2475 l0 -175 1698 2 c1646 3 1698 4 1735 22 119 59 126 234 13
301 l-43 25 -1701 0 -1702 0 0 -175z"/>
<path d="M2130 1419 c-14 -6 -36 -20 -48 -32 -43 -40 -52 -70 -52 -175 l0
-100 -112 -4 c-196 -7 -188 13 -188 -458 l0 -372 33 -33 c24 -24 46 -35 78
-40 24 -3 265 -5 534 -3 534 3 514 1 551 62 18 29 19 57 19 392 0 390 -1 395
-54 431 -20 13 -53 18 -138 21 l-113 4 0 100 c0 121 -14 158 -75 193 -40 24
-48 25 -226 24 -101 0 -195 -5 -209 -10z m350 -229 l0 -80 -145 0 -145 0 0 80
0 80 145 0 145 0 0 -80z"/>
</g>
</svg>
