<?xml version="1.0" standalone="no"?>
<!DOCTYPE svg PUBLIC "-//W3C//DTD SVG 20010904//EN"
 "http://www.w3.org/TR/2001/REC-SVG-20010904/DTD/svg10.dtd">
<svg version="1.0" xmlns="http://www.w3.org/2000/svg"
 width="512.000000pt" height="512.000000pt" viewBox="0 0 512.000000 512.000000"
 preserveAspectRatio="xMidYMid meet">

<g transform="translate(0.000000,512.000000) scale(0.100000,-0.100000)"
fill="#000000" stroke="none">
<path d="M1426 5110 c-238 -38 -472 -162 -636 -337 -155 -165 -262 -393 -286
-610 l-7 -63 151 0 150 0 7 48 c43 302 271 558 572 644 102 29 304 31 402 4
82 -22 176 -65 238 -107 74 -51 178 -155 224 -225 l41 -64 62 56 c57 53 103
82 162 104 24 10 27 7 65 -75 82 -176 117 -413 90 -606 -14 -93 -69 -272 -104
-334 -45 -80 -141 -110 -214 -65 -78 47 -89 111 -40 230 85 206 89 419 11 614
-14 36 -29 66 -33 66 -4 0 -178 -172 -387 -382 -414 -417 -424 -429 -447 -561
-8 -49 -8 -81 1 -128 24 -131 34 -143 441 -550 343 -343 382 -379 446 -410 66
-32 76 -34 175 -34 139 0 189 22 309 139 47 46 97 89 110 96 23 12 50 -14 730
-693 l706 -705 235 -41 c129 -23 245 -41 256 -41 28 0 73 36 85 67 7 18 -3 91
-36 271 -25 136 -49 248 -53 250 -4 2 -79 40 -167 85 l-159 82 -36 119 -36
120 -120 36 -119 36 -39 122 -40 122 -120 38 -120 37 -37 120 -38 119 -180
180 c-106 106 -181 189 -181 200 0 10 40 60 89 110 135 138 179 249 153 387
-24 131 -34 143 -441 551 -348 349 -381 379 -446 410 -65 31 -78 33 -179 34
l-110 2 -45 68 c-61 91 -199 228 -291 288 -120 80 -246 132 -384 162 -86 19
-299 26 -380 14z"/>
<path d="M486 3789 c-149 -35 -276 -171 -306 -329 -14 -72 -14 -3047 0 -3121
25 -132 112 -242 238 -302 l67 -32 809 -3 c707 -2 816 -1 869 13 121 31 217
110 270 223 l32 67 3 855 2 855 -75 12 c-85 14 -168 45 -253 94 -74 44 -803
764 -873 863 -154 217 -168 527 -34 750 19 32 35 60 35 62 0 8 -747 1 -784 -7z
m552 -1716 c14 -11 35 -32 46 -47 20 -26 21 -43 24 -277 l3 -249 215 0 214 0
0 240 c0 222 2 244 20 280 23 45 80 80 130 80 48 0 103 -33 128 -78 l22 -40 0
-632 0 -632 -22 -40 c-42 -74 -126 -97 -200 -56 -73 41 -78 63 -78 338 l0 240
-214 0 -215 0 -3 -249 c-3 -234 -4 -251 -24 -277 -70 -94 -190 -96 -251 -5
l-23 34 0 647 0 647 23 34 c45 68 143 88 205 42z"/>
</g>
</svg>
